<?xml version="1.0" encoding="UTF-8" standalone="no"?>
<!-- Created with Inkscape (http://www.inkscape.org/) -->

<svg
   xmlns:osb="http://www.openswatchbook.org/uri/2009/osb"
   xmlns:dc="http://purl.org/dc/elements/1.1/"
   xmlns:cc="http://creativecommons.org/ns#"
   xmlns:rdf="http://www.w3.org/1999/02/22-rdf-syntax-ns#"
   xmlns:svg="http://www.w3.org/2000/svg"
   xmlns="http://www.w3.org/2000/svg"
   xmlns:sodipodi="http://sodipodi.sourceforge.net/DTD/sodipodi-0.dtd"
   xmlns:inkscape="http://www.inkscape.org/namespaces/inkscape"
   width="210mm"
   height="245mm"
   viewBox="0 0 210 245"
   version="1.1"
   id="svg4588"
   inkscape:version="0.92.0 r15299"
   sodipodi:docname="face-up.svg">
  <defs
     id="defs4582">
    <linearGradient
       id="linearGradient5974"
       osb:paint="solid">
      <stop
         style="stop-color:#ff65ff;stop-opacity:1;"
         offset="0"
         id="stop5972" />
    </linearGradient>
  </defs>
  <sodipodi:namedview
     id="base"
     pagecolor="#ffffff"
     bordercolor="#666666"
     borderopacity="1.0"
     inkscape:pageopacity="0.0"
     inkscape:pageshadow="2"
     inkscape:zoom="0.35"
     inkscape:cx="359.0567"
     inkscape:cy="110.26766"
     inkscape:document-units="mm"
     inkscape:current-layer="layer1"
     showgrid="false"
     inkscape:window-width="1366"
     inkscape:window-height="721"
     inkscape:window-x="-4"
     inkscape:window-y="-4"
     inkscape:window-maximized="1" />
  <metadata
     id="metadata4585">
    <rdf:RDF>
      <cc:Work
         rdf:about="">
        <dc:format>image/svg+xml</dc:format>
        <dc:type
           rdf:resource="http://purl.org/dc/dcmitype/StillImage" />
        <dc:title></dc:title>
      </cc:Work>
    </rdf:RDF>
  </metadata>
  <g
     inkscape:label="Layer 1"
     inkscape:groupmode="layer"
     id="layer1"
     transform="translate(0,-52)">
    <path
       style="fill:#f2f2f2;fill-opacity:0.02293576;stroke:#ffffff;stroke-width:2.70000005;stroke-linecap:round;stroke-miterlimit:4;stroke-dasharray:none;stroke-opacity:1"
       d="m 130.22724,57.516764 c 0.16112,0.16113 2.01679,0.50448 4.12366,0.76294 6.19413,0.75995 7.48374,1.0031 7.76902,1.4647 0.14838,0.24019 0.69941,0.43667 1.22435,0.43667 0.52492,0 1.33598,0.20128 1.80234,0.4473 0.46636,0.24595 1.617,0.78501 2.55699,1.19781 0.93999,0.41282 2.25843,1.25662 2.92985,1.87516 1.11501,1.02716 4.81976,2.33945 6.60451,2.33945 0.64481,0 2.00793,0.53889 6.57983,2.60128 2.73926,1.23564 9.68181,6.2597 12.02825,8.70438 4.26886,4.44754 8.54617,11.52328 10.69728,17.69593 1.07472,3.08388 0.97336,3.3968 -0.99659,3.07712 -1.63341,-0.26506 -1.68486,-0.22969 -1.15013,0.79063 0.30788,0.5875 1.15851,1.837226 1.89026,2.777206 3.24545,4.16901 7.28606,14.91832 7.30941,19.44543 l 0.009,1.62212 -2.6857,-0.33553 c -3.06368,-0.3828 -2.91162,-0.69218 -2.17024,4.41589 0.77845,5.36334 1.91106,23.2718 1.91894,30.3416 l 0.007,6.41445 1.58701,0.75925 c 2.54631,1.2182 6.05174,5.19276 7.70228,8.73303 3.16976,6.79895 3.03071,14.48234 -0.38549,21.30225 -2.69578,5.3817 -7.81614,9.35809 -12.05036,9.35809 -1.57751,0 -1.71227,0.12419 -1.98733,1.83116 -4.32039,26.81115 -15.43632,47.27116 -32.55548,59.9217 -2.95667,2.18489 -4.28366,3.01726 -8.94413,5.61034 -0.80571,0.44829 -2.78335,1.32143 -4.39478,1.94031 -1.61141,0.61889 -3.80881,1.51079 -4.88308,1.98202 -2.51567,1.10349 -7.37823,2.33196 -14.32877,3.61999 l -5.53922,1.02651 -2.22291,5.8597 c -2.44915,6.45611 -2.42615,6.40918 -2.906,5.92934 -0.31322,-0.31323 0.0605,-1.485 2.74566,-8.60816 0.55539,-1.47334 1.00981,-2.73684 1.00981,-2.80776 0,-0.0709 -0.76909,-0.12901 -1.7091,-0.12901 -0.93999,0 -1.71035,0.16481 -1.7119,0.36624 -0.006,0.62439 -0.93168,6.09485 -1.48923,8.78956 -0.67129,3.24448 -1.61603,3.4393 -1.18403,0.24415 0.17256,-1.27572 0.49589,-2.97869 0.71867,-3.78439 0.22277,-0.80573 0.53719,-2.39883 0.69869,-3.54025 l 0.29365,-2.07531 h -1.66218 -1.66218 l -0.33171,5.00517 c -0.36773,5.54849 -0.59152,6.71424 -1.289,6.71424 -0.44032,0 -0.23243,-6.95025 0.31133,-10.40981 0.18502,-1.17703 0.067,-1.3536 -0.81641,-1.22075 -0.98986,0.14893 -1.02908,0.39342 -0.94523,5.89292 0.057,3.74708 -0.091,5.73764 -0.42666,5.73764 -0.30142,0 -0.51412,-1.18257 -0.51412,-2.85822 0,-1.57203 -0.14119,-4.2089 -0.31373,-5.85971 l -0.31372,-3.00148 h -1.639512 c -0.90173,0 -1.63952,0.18031 -1.63952,0.40068 0,0.22038 0.43947,2.4572 0.97662,4.97071 0.53714,2.51352 0.97661,4.97008 0.97661,5.45903 0,1.50817 -0.85463,0.98083 -1.13123,-0.69802 -0.31406,-1.90622 -1.89923,-9.86112 -1.98339,-9.95329 -0.0327,-0.0358 -0.7826,-0.22003 -1.66653,-0.40946 -1.57168,-0.33681 -1.59949,-0.31382 -1.25978,1.04167 0.19106,0.76233 1.18894,3.45499 2.21754,5.98369 2.14742,5.27923 2.05817,4.9244 1.23882,4.9244 -0.34724,0 -1.05707,-1.2635 -1.57741,-2.80778 -0.52034,-1.54427 -1.33494,-3.62117 -1.81022,-4.61535 -0.47527,-0.99415 -0.86412,-2.02757 -0.86412,-2.29649 0,-0.2689 -0.25502,-1.0486 -0.5667,-1.73266 -0.48431,-1.063 -0.88416,-1.24375 -2.75111,-1.24375 -1.20145,0 -2.97902,-0.20379 -3.95018,-0.45285 -0.97114,-0.24908 -3.40249,-0.81464 -5.40298,-1.2568 -7.37766,-1.63066 -16.40908,-5.27961 -21.35448,-8.6278 -1.12267,-0.76009 -2.18974,-1.38197 -2.37128,-1.38197 -1.20548,0 -9.75268,-7.63008 -13.2732,-11.84898 -10.41604,-12.48229 -16.47171,-27.23923 -19.68452,-47.96885 -0.24975,-1.61141 -0.4585,-3.06573 -0.46391,-3.23179 -0.006,-0.16611 -0.85764,-0.41565 -1.89386,-0.55464 -5.56598,-0.74655 -10.00655,-5.11776 -12.6228003,-12.42564 -1.31197,-3.66467 -1.19381,-12.16689 0.22595,-16.26047 1.3969003,-4.02759 4.0678603,-7.57442 7.3791703,-9.79893 l 2.5928,-1.74183 -0.0554,-13.88405 c -0.0404,-10.14188 0.14746,-15.31472 0.69698,-19.19206 0.4138,-2.91938 0.8773,-5.51013 1.03,-5.7572 0.33534,-0.5426 -2.28419,0.0148 -2.95381,0.6296 -0.25513,0.23391 -0.96928,0.42528 -1.58699,0.42528 -0.61771,0 -1.12311,0.21972 -1.12311,0.4883 0,0.26857 -0.43948,0.4883 -0.97662,0.4883 -0.54614,0 -0.97663,-0.32554 -0.97663,-0.73856 0,-0.81225 6.84444,-14.69132 8.34144,-16.91467 0.51505,-0.76495 1.39527,-2.0673 1.95605,-2.89411 1.14526,-1.68857 0.88276,-2.42298 -0.54688,-1.53016 -1.07178,0.66934 -3.40258,0.80049 -3.40258,0.19147 0,-0.82186 5.34256,-8.480896 8.81245,-12.633436 8.14592,-9.74853 20.5085,-20.63796 27.35169,-24.09235 2.64654,-1.33601 7.45313,-3.22514 9.49274,-3.73104 0.53714,-0.13325 1.41609,-0.42691 1.95323,-0.65275 1.0798,-0.45388 8.30475,-2.21332 10.98694,-2.6755 1.853,-0.3193 4.92022,-0.87397 9.52204,-1.72187 5.83684,-1.07551 13.949772,-1.5893 28.104722,-1.77995 7.93764,-0.10686 14.56391,-0.0626 14.72506,0.0985 z M 65.755968,108.97135 c -4.5507,2.09482 -9.89533,4.92962 -11.87696,6.29954 -11.14608,7.70525 -18.54732,19.37255 -23.80182,37.52111 -1.82847,6.31536 -4.45532,18.55624 -4.06572,18.94586 0.14636,0.14636 1.2007,0.26597 2.34311,0.26597 h 2.07714 l 0.33354,-3.29609 c 0.65285,-6.45188 4.38076,-11.89327 9.89262,-14.43966 2.20464,-1.0185 2.93196,-1.06415 16.95273,-1.06415 h 14.64927 l 2.79328,1.30921 c 3.53914,1.65878 6.80529,5.00312 8.22031,8.41711 l 1.1013,2.65707 2.83166,-2.87596 c 4.64482,-4.71749 9.81386,-6.80567 16.872102,-6.81593 6.99766,-0.009 12.4663,2.41485 17.25056,7.64959 2.06455,2.25895 2.49619,2.53822 2.75751,1.7841 1.79661,-5.18462 4.71541,-8.71801 8.89863,-10.77235 l 2.7548,-1.35284 h 14.64927 14.64927 l 2.70798,1.27015 c 3.85937,1.8102 6.0729,3.95614 7.89181,7.65088 1.19511,2.42761 1.63251,4.04249 1.77421,6.55039 l 0.18808,3.32848 h 3.36307 c 1.84967,0 3.36305,-0.14894 3.36305,-0.33086 0,-0.18197 -0.65629,-3.533 -1.4584,-7.44671 -6.00104,-29.28033 -17.09462,-49.33136 -31.06104,-56.14114 -2.98819,-1.45697 -3.29147,-1.51453 -4.27057,-0.81047 -0.57966,0.41681 -3.14145,2.29332 -5.69287,4.17001 -5.3016,3.89963 -10.53265,6.65196 -13.55058,7.12974 -1.14141,0.1807 -2.07531,0.1783 -2.07531,-0.006 0,-0.18364 1.09194,-1.68345 2.42651,-3.33284 1.33457,-1.64937 2.35545,-3.06993 2.2686,-3.15678 -0.0869,-0.0869 -2.88174,0.50797 -6.21088,1.3218 -9.12546,2.23077 -14.30752,3.03356 -19.98275,3.09568 -4.720652,0.0517 -5.350272,-0.0535 -7.714692,-1.28993 -5.22465,-2.7319 -11.09367,-2.68366 -19.5583,0.16075 -2.29948,0.7727 -4.27316,1.31265 -4.38596,1.19984 -0.11276,-0.11276 0.7245,-1.43626 1.86064,-2.94107 1.13612,-1.50479 1.975,-2.82669 1.86414,-2.93755 -0.11092,-0.11092 -1.12185,0.16001 -2.24666,0.60181 -1.12482,0.44185 -2.17935,0.66911 -2.34342,0.50506 -0.16407,-0.16407 1.15552,-2.12105 2.9324,-4.34885 1.7769,-2.22779 3.23194,-4.2246 3.23342,-4.43734 0.001,-0.21275 -0.97242,0.18464 -2.1642,0.88306 -1.19178,0.69844 -5.89018,2.98383 -10.44088,5.07866 z m 46.626592,17.86376 c 2.92171,0.6352 5.32312,1.59476 4.94284,1.97504 -0.10261,0.1026 -1.2448,-0.13177 -2.53809,-0.52099 -6.23728,-1.87714 -15.144582,-1.77525 -20.999882,0.24026 -2.93938,1.01178 -4.13339,1.02858 -2.27117,0.0319 4.1847,-2.2396 14.557972,-3.09776 20.866302,-1.72626 z m -1.54628,5.81774 c 1.88,0.36694 4.67612,1.14453 6.21361,1.72797 3.15094,1.1957 8.33149,4.80799 9.18649,6.40556 0.54819,1.02433 0.63578,0.98194 2.91928,-1.41218 4.24414,-4.44972 8.63254,-5.78763 13.94954,-4.25287 3.92679,1.13348 9.78953,4.73727 9.21611,5.66508 -0.14064,0.22772 -1.40209,-0.45768 -2.80303,-1.52312 -9.26461,-7.04584 -17.97548,-4.53671 -23.81614,6.86018 -1.03227,2.01426 -1.88784,3.30872 -1.90127,2.87656 -0.0129,-0.43213 0.62814,-2.07941 1.4257,-3.66056 l 1.45011,-2.87487 -2.30464,-2.3452 c -8.24844,-8.39353 -25.952472,-9.63472 -36.468662,-2.55672 -1.60868,1.08272 -3.63163,2.90321 -4.49544,4.04551 l -1.57055,2.07689 1.24313,2.71539 c 1.912,4.17635 0.99327,3.69706 -1.27666,-0.66603 -2.65656,-5.10623 -4.83084,-7.56518 -8.10646,-9.1678 -2.33744,-1.1436 -3.11579,-1.28438 -5.9692,-1.07955 -3.51386,0.25223 -6.04195,1.28969 -9.99552,4.10183 -1.2757,0.90741 -2.31946,1.43183 -2.31946,1.1654 0,-0.70884 3.75713,-3.36078 6.7128,-4.73819 5.78859,-2.69762 11.11532,-1.84569 15.51501,2.48144 1.39731,1.37424 2.74441,2.88293 2.99356,3.35261 0.39381,0.74235 0.86532,0.45326 3.60794,-2.21215 3.39791,-3.30224 6.83799,-5.1948 11.76181,-6.47069 4.222252,-1.09411 10.709462,-1.31912 14.831942,-0.51449 z m 22.28866,22.97625 c -3.3648,1.86364 -6.11687,5.01295 -7.41684,8.48744 -1.02293,2.73402 -1.02571,3.39287 -0.0303,7.15484 0.7386,2.79124 0.6579,7.02546 -0.18703,9.81064 -1.01455,3.34443 -0.9197,5.13177 0.43486,8.19468 1.4949,3.38023 4.543,6.42833 7.92323,7.92322 2.59639,1.14827 2.93954,1.17259 16.53598,1.17259 16.45245,0 17.51445,-0.22291 21.58939,-4.53155 3.94302,-4.16916 4.29536,-5.63998 4.29536,-17.93065 0,-9.7428 -0.0762,-10.66376 -1.05964,-12.79192 -1.99065,-4.30813 -6.59323,-7.92042 -11.14808,-8.74948 -1.07427,-0.19554 -7.88618,-0.31787 -15.13757,-0.27187 l -13.18434,0.0836 z m 32.40193,3.38028 c 2.35651,1.02944 4.32764,2.95547 5.62574,5.497 1.16294,2.27691 1.21059,2.7354 1.21059,11.64808 v 9.27786 l -1.46493,2.92258 c -1.20414,2.40232 -1.94304,3.20605 -4.15062,4.51483 l -2.68571,1.59228 -13.24677,0.002 c -14.35252,0.002 -15.10337,-0.11166 -18.25998,-2.76772 -0.87652,-0.73755 -2.10945,-2.44866 -2.73987,-3.80248 -1.07403,-2.30646 -1.14652,-3.03919 -1.15099,-11.63297 -0.005,-10.1678 0.28313,-11.52291 3.07191,-14.43223 3.29199,-3.43432 3.64413,-3.49962 18.75567,-3.47834 10.08422,0.0148 13.94635,0.18364 15.03496,0.65915 z m -29.68044,0.96253 c -2.09163,0.88398 -4.19428,3.04502 -5.2928,5.43976 -0.76647,1.67082 -0.89601,3.25934 -0.89601,10.98693 0,10.22454 0.36304,11.70582 3.55611,14.50936 2.82656,2.48175 4.15087,2.66029 18.47759,2.49109 l 13.02143,-0.15374 2.08945,-1.46939 c 1.2649,-0.88953 2.58176,-2.42632 3.33693,-3.8943 1.20904,-2.35023 1.24745,-2.71091 1.24745,-11.71494 0,-8.57925 -0.0805,-9.43949 -1.05117,-11.24328 -1.18351,-2.19916 -2.65407,-3.66837 -4.80854,-4.80416 -2.0152,-1.0624 -27.21929,-1.18747 -29.68044,-0.14728 z m 6.64812,9.01166 c 2.03574,2.24948 2.37197,7.5207 0.6922,10.85182 -1.83362,3.63615 -4.55911,2.88919 -5.76453,-1.57985 -1.5852,-5.87702 2.08056,-12.57783 5.07233,-9.27197 z M 40.876208,155.35064 c -3.24995,1.45992 -6.8918,5.37634 -8.07054,8.67898 -0.73816,2.06818 -0.87399,4.02396 -0.85376,12.29264 0.0166,7.1047 0.21379,10.38382 0.70781,11.81775 1.62478,4.71598 5.92683,8.79317 10.30162,9.76321 1.57171,0.34848 7.31265,0.48502 16.1142,0.38324 13.2214,-0.1528 13.74516,-0.19577 15.87003,-1.2994 4.04467,-2.1008 6.74827,-5.33376 8.03453,-9.60772 0.65488,-2.17602 0.62144,-2.52912 -0.58723,-6.1977 -1.1858,-3.59918 -1.24334,-4.1564 -0.76912,-7.44814 0.28191,-1.95684 0.84633,-4.22692 1.25423,-5.0446 1.68409,-3.37582 -2.58964,-10.61422 -7.68824,-13.02158 -3.33195,-1.57321 -4.50192,-1.67365 -18.31159,-1.57178 -12.96395,0.0956 -13.51752,0.13897 -16.00194,1.2551 z m 32.60443,4.1297 c 2.82296,1.44099 5.13687,4.48263 5.81475,7.64345 0.83268,3.88273 0.68759,16.52678 -0.21922,19.10169 -1.15511,3.28001 -2.96139,5.53899 -5.5598,6.95322 l -2.36527,1.28735 h -13.24567 c -12.48332,0 -13.37258,-0.0596 -15.45107,-1.03668 -2.65637,-1.24864 -5.23355,-4.1263 -6.00679,-6.70714 -0.34297,-1.14472 -0.56247,-5.43577 -0.55599,-10.86858 0.012,-10.05062 0.34984,-11.46899 3.45577,-14.50909 2.98175,-2.91855 3.5735,-3.01478 18.44497,-2.99962 13.09541,0.0129 13.55537,0.0467 15.68832,1.1354 z m -32.13605,1.4167 c -1.28761,0.8526 -2.48095,2.23228 -3.25924,3.76816 -1.18346,2.33546 -1.22748,2.75477 -1.21715,11.5951 0.0122,10.37523 0.36875,11.83969 3.56685,14.64766 2.83715,2.49104 4.14769,2.66801 18.47762,2.49474 l 13.02149,-0.15742 2.08941,-1.4694 c 1.26498,-0.8896 2.58163,-2.42628 3.33686,-3.8945 1.20904,-2.35041 1.24746,-2.71118 1.24746,-11.71494 0,-8.57904 -0.0805,-9.4393 -1.05117,-11.24307 -1.17934,-2.19138 -2.64257,-3.65678 -4.80854,-4.8157 -1.26228,-0.67539 -3.3951,-0.76803 -15.41857,-0.66975 l -13.95366,0.11406 z m 27.847,8.05487 c 1.42244,1.63072 1.84752,3.00322 1.84752,5.96537 0,4.69809 -1.71512,7.75528 -4.02221,7.16955 -1.43595,-0.36457 -2.24945,-1.73407 -2.82134,-4.74967 -1.10524,-5.82792 2.27623,-11.5033 4.99603,-8.38525 z m 31.146052,-12.06042 c -6.730652,1.07333 -13.079682,5.49347 -15.907732,11.07481 -1.30899,2.58338 -1.42696,3.24157 -1.42381,7.94401 0.004,4.65733 0.12772,5.3638 1.35995,7.70838 5.72415,10.89167 20.204372,14.72119 31.230562,8.25942 2.97572,-1.74389 6.55725,-5.74537 8.07782,-9.02501 1.65086,-3.56062 1.85157,-9.80172 0.42712,-13.28143 -2.67088,-6.52459 -9.00243,-11.41578 -16.43928,-12.69955 -3.15933,-0.54537 -3.79393,-0.54369 -7.32463,0.0194 z m 89.89752,12.30584 c -0.0441,2.10311 0.12901,2.48127 1.84617,4.03262 2.91717,2.63548 4.09657,5.88186 3.88471,10.69289 -0.12808,2.90722 -0.48003,4.57539 -1.33248,6.31439 -1.34314,2.73995 -4.41651,5.20543 -6.4889,5.20543 -1.61396,0 -1.67843,0.13325 -2.10287,4.34456 l -0.31484,3.12379 2.44766,-0.28991 c 3.77958,-0.44762 5.92491,-1.84127 8.96472,-5.82364 1.88718,-2.47234 3.53473,-6.97447 4.00025,-10.93121 0.91894,-7.81018 -3.11441,-17.43374 -8.46289,-20.19244 -1.74966,-0.90247 -1.7592,-0.90179 -2.07531,0.14802 -0.17459,0.58008 -0.33946,2.09902 -0.36622,3.37545 z M 16.215758,166.17181 c -4.29995,2.84817 -7.1906803,8.81979 -7.5622303,15.62198 -0.59385,10.87168 4.6317503,19.51533 12.5651503,20.78391 l 2.02993,0.32461 -0.31436,-3.11945 c -0.42013,-4.16923 -0.41344,-4.15561 -2.21404,-4.51573 -2.50774,-0.50154 -5.59057,-3.95501 -6.58539,-7.37707 -1.63002,-5.60703 0.13712,-12.29948 4.03232,-15.27044 1.2105,-0.92329 1.59822,-1.5919 1.59416,-2.74906 -0.007,-2.2093 -0.5543,-5.19136 -0.95143,-5.19136 -0.18738,0 -1.35473,0.67167 -2.59411,1.49261 z m 173.169162,11.23688 c -0.33041,2.26445 -1.05148,5.54547 -1.60238,7.29117 -1.0747,3.4056 -1.41549,10.2545 -0.51023,10.2545 2.44513,0 6.25015,-3.44745 7.36444,-6.67237 1.01091,-2.92578 0.79074,-7.81078 -0.48033,-10.65651 -1.19088,-2.66627 -2.89972,-4.75762 -3.67598,-4.49886 -0.27213,0.0906 -0.76511,2.01763 -1.09552,4.28207 z m -11.80483,-2.84125 -0.15447,1.34287 h 3.69475 c 2.03211,0 3.69475,-0.0956 3.69475,-0.21237 0,-0.11683 -0.21831,-0.78653 -0.48512,-1.48832 -0.46096,-1.21241 -0.63723,-1.2687 -3.54025,-1.13048 -2.92832,0.13933 -3.06153,0.2012 -3.20962,1.4883 z m -152.000852,0 -0.35671,1.34287 h 2.64345 c 2.6222,0 2.64348,-0.0129 2.64348,-1.49169 0,-1.4722 -0.0299,-1.48973 -2.28674,-1.34284 -2.02892,0.13213 -2.327,0.30024 -2.64348,1.49166 z m -8.17648,-0.12457 c -4.17056,4.17058 -3.90291,14.32197 0.48522,18.40367 1.28344,1.19379 3.70468,2.24409 4.31037,1.86977 0.21807,-0.13472 0.2094,-1.07023 -0.0194,-2.07881 -0.22869,-1.00856 -0.80753,-5.84399 -1.28635,-10.74538 -0.59118,-6.05182 -1.05619,-8.91165 -1.44904,-8.91165 -0.31817,0 -1.23657,0.65808 -2.04089,1.4624 z m 159.996122,7.93755 c -0.24,5.93731 -1.17364,8.42834 -4.48629,11.96981 -4.38435,4.68724 -7.58198,5.46434 -22.52329,5.47372 -10.1967,0.007 -14.95809,-0.47663 -17.5222,-1.77753 -4.13884,-2.09986 -7.30302,-5.86272 -8.60864,-10.2374 l -0.60231,-2.01812 -2.99177,3.03562 c -7.27923,7.38594 -17.78484,9.1347 -27.484922,4.57513 -1.27075,-0.59732 -3.80571,-2.49658 -5.63324,-4.22059 -1.9573,-1.84643 -3.32277,-2.82589 -3.32277,-2.38343 0,1.62148 -2.03078,5.3516 -4.14281,7.60955 -1.39712,1.49363 -3.3494,2.88471 -5.2648,3.75133 -3.01586,1.36457 -3.15435,1.37939 -14.83406,1.58731 -13.16336,0.23436 -17.06986,-0.1865 -20.85519,-2.24673 -5.27844,-2.87288 -8.02287,-7.91935 -8.48757,-15.60699 l -0.27305,-4.51685 h -2.80318 -2.80317 l -0.66531,5.00517 c -2.20602,16.59569 1.9198,40.47339 9.7995,56.71346 9.04571,18.64326 24.60298,31.57141 44.07319,36.62493 5.29044,1.37314 13.1583,2.8336 13.48817,2.50374 0.11831,-0.1183 -0.14192,-1.10767 -0.57844,-2.19854 -0.9229,-2.30655 -0.94331,-2.45192 -0.34451,-2.45192 0.24697,0 0.81399,1.09871 1.26001,2.44155 0.66507,2.00236 1.01631,2.44155 1.95255,2.44155 0.62786,0 1.52389,0.14672 1.99115,0.326 0.74816,0.2871 0.81106,0.0976 0.52682,-1.58699 -0.17754,-1.05216 -0.46545,-2.77069 -0.63986,-3.81896 -0.20013,-1.20297 -0.13989,-1.79639 0.16352,-1.60894 0.26432,0.16334 0.75722,1.84504 1.09535,3.73709 l 0.61476,3.4401 h 1.98127 1.981262 l -0.30123,-3.90648 c -0.18523,-2.40192 -0.11904,-3.90645 0.17182,-3.90645 0.26017,0 0.47544,0.93388 0.47841,2.07531 0.004,1.14142 0.14155,2.89933 0.30804,3.90646 0.24499,1.48213 0.51156,1.83116 1.39851,1.83116 1.25108,0 1.70623,-1.44916 1.70623,-5.43244 0,-1.30927 0.22489,-2.38049 0.49975,-2.38049 0.32626,0 0.38665,1.35592 0.17404,3.90645 l -0.3258,3.90648 h 1.9791 1.97909 l 0.61478,-3.4401 c 0.33813,-1.89205 0.83186,-3.57425 1.09718,-3.73823 0.30597,-0.1891 0.3647,0.39934 0.16056,1.60893 -1.03603,6.13991 -1.09345,5.5694 0.56041,5.5694 1.84591,0 2.63836,-0.76058 3.49412,-3.35356 0.36627,-1.1098 0.85052,-2.01784 1.0761,-2.01784 0.5354,0 0.53317,0.0166 -0.32231,2.44155 -0.40285,1.14182 -0.73246,2.18322 -0.73246,2.31422 0,0.67273 10.79689,-1.49774 16.6025,-3.33756 24.57641,-7.78832 42.31567,-28.00991 49.84005,-56.81447 3.09095,-11.8326 4.86701,-27.91134 3.91209,-35.41636 -0.28956,-2.2758 -0.52647,-4.41827 -0.52647,-4.76103 0,-0.45269 -1.05355,-0.62319 -3.8511,-0.62319 h -3.85109 z m -59.80766,23.15398 c 0.44061,0.4406 0.32338,5.48107 -0.16278,6.99909 -0.2644,0.82556 -0.40673,-0.16241 -0.43964,-3.05193 -0.0487,-4.27464 -0.006,-4.5554 0.6024,-3.94716 z m -29.461312,3.58094 c 0,2.27877 -0.20346,3.90646 -0.48831,3.90646 -0.28484,0 -0.4883,-1.62769 -0.4883,-3.90646 0,-2.27879 0.20346,-3.90648 0.4883,-3.90648 0.28485,0 0.48831,1.62769 0.48831,3.90648 z m 31.972862,-2.94827 c 0.41662,0.67411 0.12698,6.87656 -0.33447,7.16174 -0.21263,0.1314 -0.38661,-1.53195 -0.38661,-3.69636 0,-3.83471 0.12421,-4.43127 0.72108,-3.46538 z m 2.4649,0.5261 c 0.31072,0.50275 -0.17588,7.3611 -0.55011,7.75286 -0.10686,0.11184 -0.19434,-1.70094 -0.19434,-4.02855 0,-4.15492 0.11683,-4.73971 0.74445,-3.72431 z m -36.879302,3.15462 c 0,2.11601 -0.20617,3.66233 -0.48832,3.66233 -0.28213,0 -0.4883,-1.54632 -0.4883,-3.66233 0,-2.11602 0.20617,-3.66231 0.4883,-3.66231 0.28215,0 0.48832,1.54629 0.48832,3.66231 z m 39.199082,-2.87686 c 0.30816,0.30813 -0.0803,7.11586 -0.42659,7.4751 -0.10778,0.11184 -0.19609,-1.59108 -0.19609,-3.78439 0,-3.95904 0.0511,-4.26223 0.62268,-3.69071 z m -41.640632,3.36517 c 0,2.116 -0.20617,3.66232 -0.4883,3.66232 -0.28213,0 -0.48832,-1.54632 -0.48832,-3.66232 0,-2.116 0.20619,-3.66231 0.48832,-3.66231 0.28213,0 0.4883,1.54631 0.4883,3.66231 z m -2.44155,0.24416 c 0,2.27878 -0.20345,3.90646 -0.4883,3.90646 -0.28485,0 -0.4883,-1.62768 -0.4883,-3.90646 0,-2.27878 0.20345,-3.90647 0.4883,-3.90647 0.28485,0 0.4883,1.62769 0.4883,3.90647 z m 48.993672,-2.60431 c 0.5196,0.51959 0.376,6.91027 -0.16278,7.24325 -0.31012,0.19164 -0.48831,-1.13433 -0.48831,-3.6335 0,-3.94655 0.048,-4.21281 0.65109,-3.60975 z m -2.29891,3.17626 c -0.41699,4.7115 -0.79371,4.82631 -0.79371,0.2419 0,-2.45755 0.18958,-3.74371 0.55183,-3.74371 0.38774,0 0.45968,1.04125 0.24188,3.50181 z m -49.136292,0.16056 c 0,2.11601 -0.20617,3.66233 -0.48832,3.66233 -0.28213,0 -0.4883,-1.54632 -0.4883,-3.66233 0,-2.11601 0.20617,-3.6623 0.4883,-3.6623 0.28215,0 0.48832,1.54629 0.48832,3.6623 z m 54.202292,0.70365 c 0,2.13271 -0.21974,4.01346 -0.48832,4.17944 -0.311,0.19223 -0.48831,-1.2157 -0.48831,-3.87765 0,-2.46075 0.2008,-4.17945 0.48831,-4.17945 0.28455,0 0.48832,1.6181 0.48832,3.87766 z m -56.643842,-0.21534 c 0,2.116 -0.20617,3.66232 -0.4883,3.66232 -0.28214,0 -0.48832,-1.54632 -0.48832,-3.66232 0,-2.11599 0.20618,-3.66232 0.48832,-3.66232 0.28213,0 0.4883,1.54633 0.4883,3.66232 z m -2.76709,-3.33677 c 0.52907,0.52907 0.37781,7.4874 -0.16278,7.4874 -0.28485,0 -0.48831,-1.62769 -0.48831,-3.90646 0,-3.91814 0.0484,-4.18374 0.65109,-3.58094 z m 61.526922,0.4883 c 0.5204,0.5204 0.37559,7.39885 -0.16278,7.73157 -0.311,0.19222 -0.4883,-1.2157 -0.4883,-3.87765 0,-4.18719 0.046,-4.45906 0.65108,-3.85392 z m -63.968452,0 c 0.52907,0.52908 0.37778,7.48742 -0.16278,7.48742 -0.28485,0 -0.48833,-1.62771 -0.48833,-3.90648 0,-3.91814 0.0484,-4.18372 0.65109,-3.58094 z m 66.410002,0.48832 c 0.52907,0.52906 0.37781,7.4874 -0.16278,7.4874 -0.28485,0 -0.4883,-1.62769 -0.4883,-3.90648 0,-3.91814 0.0484,-4.18373 0.65108,-3.58092 z m -68.851552,0 c 0.52907,0.52906 0.3778,7.4874 -0.16276,7.4874 -0.28485,0 -0.48831,-1.62769 -0.48831,-3.90648 0,-3.91814 0.0483,-4.18373 0.65108,-3.58092 z m -2.44155,0.48831 c 0.52907,0.52904 0.3778,7.48739 -0.16276,7.48739 -0.28484,0 -0.48831,-1.62769 -0.48831,-3.90646 0,-3.91814 0.0483,-4.18373 0.65108,-3.58093 z m 74.060192,3.82509 c 0,2.11599 -0.20617,3.6623 -0.48832,3.6623 -0.28213,0 -0.4883,-1.54631 -0.4883,-3.6623 0,-2.11601 0.20617,-3.66233 0.4883,-3.66233 0.28215,0 0.48832,1.54632 0.48832,3.66233 z m -76.501732,-3.33679 c 0.52907,0.52907 0.3778,7.48741 -0.16276,7.48741 -0.28485,0 -0.48831,-1.6277 -0.48831,-3.90647 0,-3.91815 0.0483,-4.18373 0.65107,-3.58094 z m 78.943262,3.79626 c 0,1.99843 -0.21973,3.76931 -0.4883,3.93531 -0.31011,0.19164 -0.4883,-1.13433 -0.4883,-3.6335 0,-2.29799 0.20316,-3.93529 0.4883,-3.93529 0.28178,0 0.4883,1.5367 0.4883,3.63348 z m 2.44155,0.51713 c 0,2.11601 -0.20616,3.66233 -0.4883,3.66233 -0.28213,0 -0.48832,-1.54632 -0.48832,-3.66233 0,-2.11599 0.20619,-3.66231 0.48832,-3.66231 0.28214,0 0.4883,1.54632 0.4883,3.66231 z m -83.500812,0 c 0,2.11601 -0.20618,3.66233 -0.48831,3.66233 -0.28214,0 -0.48831,-1.54632 -0.48831,-3.66233 0,-2.11599 0.20617,-3.66231 0.48831,-3.66231 0.28213,0 0.48831,1.54632 0.48831,3.66231 z m 85.942372,0.48832 c 0,2.11599 -0.20617,3.66231 -0.48833,3.66231 -0.28213,0 -0.4883,-1.54632 -0.4883,-3.66231 0,-2.11601 0.20617,-3.66233 0.4883,-3.66233 0.28216,0 0.48833,1.54632 0.48833,3.66233 z m -88.383922,0 c 0,2.11599 -0.20617,3.66231 -0.48831,3.66231 -0.28213,0 -0.48831,-1.54632 -0.48831,-3.66231 0,-2.11601 0.20618,-3.66233 0.48831,-3.66233 0.28214,0 0.48831,1.54632 0.48831,3.66233 z m -2.76709,-3.33678 c 0.52907,0.52907 0.37781,7.4874 -0.16276,7.4874 -0.28484,0 -0.48831,-1.6277 -0.48831,-3.90647 0,-3.91814 0.0483,-4.18372 0.65108,-3.58093 z m 93.592542,3.82508 c 0,2.11601 -0.20617,3.66232 -0.48831,3.66232 -0.28213,0 -0.4883,-1.54631 -0.4883,-3.66232 0,-2.116 0.20617,-3.6623 0.4883,-3.6623 0.28214,0 0.48831,1.5463 0.48831,3.6623 z m -96.034082,-3.33676 c 0.52907,0.52905 0.3778,7.48739 -0.16276,7.48739 -0.28484,0 -0.48831,-1.62768 -0.48831,-3.90647 0,-3.91815 0.0483,-4.18372 0.65108,-3.58092 z m 98.475632,3.82507 c 0,2.11601 -0.20617,3.66232 -0.4883,3.66232 -0.28214,0 -0.48833,-1.54631 -0.48833,-3.66232 0,-2.11599 0.20619,-3.66231 0.48833,-3.66231 0.28213,0 0.4883,1.54632 0.4883,3.66231 z M 51.181208,212.85909 c 0.52038,0.52037 0.37557,7.39885 -0.16277,7.73155 -0.31101,0.19221 -0.48831,-1.2157 -0.48831,-3.87765 0,-4.18719 0.046,-4.45905 0.65108,-3.8539 z m 103.358722,3.79626 c 0,1.99842 -0.21974,3.7693 -0.48832,3.93529 -0.3101,0.19166 -0.4883,-1.13432 -0.4883,-3.6335 0,-2.29798 0.20316,-3.93529 0.4883,-3.93529 0.2818,0 0.48832,1.5367 0.48832,3.6335 z m 2.44153,0.4883 c 0,1.99843 -0.21973,3.76932 -0.4883,3.93531 -0.31011,0.19164 -0.4883,-1.13433 -0.4883,-3.6335 0,-2.29798 0.20316,-3.93529 0.4883,-3.93529 0.28178,0 0.4883,1.5367 0.4883,3.63348 z m -107.997172,-0.0166 c 0.0819,2.16352 -0.0704,3.74438 -0.37937,3.93529 -0.34659,0.21422 -0.51633,-0.97456 -0.51633,-3.61617 0,-4.93837 0.71113,-5.19174 0.8957,-0.31912 z m 110.438722,0.53448 c 0,2.11601 -0.20617,3.66233 -0.4883,3.66233 -0.28213,0 -0.48832,-1.54632 -0.48832,-3.66233 0,-2.11599 0.20619,-3.66231 0.48832,-3.66231 0.28213,0 0.4883,1.54632 0.4883,3.66231 z M 46.313128,216.26476 c 0.44647,3.25735 0.38315,5.0591 -0.17778,5.0591 -0.28214,0 -0.48831,-1.54632 -0.48831,-3.66233 0,-2.01426 0.08,-3.66231 0.17778,-3.66231 0.0978,0 0.31752,1.0195 0.48831,2.26554 z m 86.546142,15.55838 c -1.42818,1.08099 -8.3975,3.62643 -12.74513,4.65495 -14.46212,3.4213 -30.437622,2.05919 -43.475652,-3.70686 -4.35964,-1.92803 -2.75662,-1.96375 2.09154,-0.0465 8.30458,3.28395 15.87481,4.71339 24.961892,4.71339 9.69233,0 17.37877,-1.43878 25.19696,-4.71649 4.14659,-1.7384 5.47827,-2.03973 3.97039,-0.89841 z m 0.68336,7.02857 c 0,0.62452 -7.96898,3.72961 -12.51151,4.87507 -6.82792,1.72179 -11.54807,2.16297 -19.90817,1.86083 -5.231562,-0.18906 -9.255822,-0.6098 -12.016422,-1.25632 -6.30888,-1.4775 -14.64927,-4.53241 -14.64927,-5.36573 0,-0.22691 1.87229,0.33918 4.16063,1.258 9.62092,3.863 20.7468,5.51402 30.908842,4.58668 6.83927,-0.6241 15.55644,-2.71473 20.29906,-4.86824 3.76165,-1.70808 3.71684,-1.69494 3.71684,-1.09029 z"
       id="path4571-2"
       inkscape:connector-curvature="0" />
  </g>
</svg>
