<?xml version="1.0" encoding="UTF-8" standalone="no"?>
<svg
   xmlns:dc="http://purl.org/dc/elements/1.1/"
   xmlns:cc="http://creativecommons.org/ns#"
   xmlns:rdf="http://www.w3.org/1999/02/22-rdf-syntax-ns#"
   xmlns:svg="http://www.w3.org/2000/svg"
   xmlns="http://www.w3.org/2000/svg"
   xmlns:sodipodi="http://sodipodi.sourceforge.net/DTD/sodipodi-0.dtd"
   xmlns:inkscape="http://www.inkscape.org/namespaces/inkscape"
   width="128"
   height="128"
   version="1.1"
   id="svg4809"
   sodipodi:docname="logo_3.svg"
   inkscape:version="0.92.0 r15299">
  <metadata
     id="metadata4813">
    <rdf:RDF>
      <cc:Work
         rdf:about="">
        <dc:format>image/svg+xml</dc:format>
        <dc:type
           rdf:resource="http://purl.org/dc/dcmitype/StillImage" />
        <dc:title />
      </cc:Work>
    </rdf:RDF>
  </metadata>
  <sodipodi:namedview
     pagecolor="#ffffff"
     bordercolor="#666666"
     borderopacity="1"
     objecttolerance="10"
     gridtolerance="10"
     guidetolerance="10"
     inkscape:pageopacity="0"
     inkscape:pageshadow="2"
     inkscape:window-width="1366"
     inkscape:window-height="721"
     id="namedview4811"
     showgrid="false"
     inkscape:zoom="7.8680136"
     inkscape:cx="73.97225"
     inkscape:cy="77.322496"
     inkscape:window-x="-4"
     inkscape:window-y="-4"
     inkscape:window-maximized="1"
     inkscape:current-layer="g4843" />
  <desc
     id="desc4606">D:\Desktop on D\logo_compas2.dxf - scale = 1.000000, origin = (0.000000, 0.000000), method = manual</desc>
  <defs
     id="defs4747">
    <marker
       id="DistanceX"
       orient="auto"
       refX="0"
       refY="0"
       style="overflow:visible">
      <path
         d="M 3,-3 -3,3 M 0,-5 V 5"
         style="stroke:#000000;stroke-width:0.5"
         id="path4608"
         inkscape:connector-curvature="0" />
    </marker>
    <pattern
       height="8"
       id="Hatch"
       patternUnits="userSpaceOnUse"
       width="8"
       x="0"
       y="0">
      <path
         d="M8 4 l-4,4"
         linecap="square"
         stroke="#000000"
         stroke-width="0.25"
         id="path4611" />
      <path
         d="M6 2 l-4,4"
         linecap="square"
         stroke="#000000"
         stroke-width="0.25"
         id="path4613" />
      <path
         d="M4 0 l-4,4"
         linecap="square"
         stroke="#000000"
         stroke-width="0.25"
         id="path4615" />
    </pattern>
    <symbol
       id="*Model_Space" />
    <symbol
       id="*Paper_Space" />
    <symbol
       id="*Paper_Space0" />
    <symbol
       id="KDIMARROW_00">
      <path
         d="M 0,1122.5197 H -3.779528"
         style="fill:none;stroke:#000000;stroke-width:0.69999999;stroke-linecap:round"
         id="path4621"
         inkscape:connector-curvature="0" />
    </symbol>
    <symbol
       id="KDIMARROW_01">
      <path
         d="m 0,1122.5197 -18.897638,2.4879"
         style="fill:none;stroke:#000000;stroke-width:0.69999999;stroke-linecap:round"
         id="path4624"
         inkscape:connector-curvature="0" />
      <path
         d="m -18.897638,1125.0076 1.889764,-2.4879"
         style="fill:none;stroke:#000000;stroke-width:0.69999999;stroke-linecap:round"
         id="path4626"
         inkscape:connector-curvature="0" />
      <path
         d="m -17.007874,1122.5197 -1.889764,-2.4879"
         style="fill:none;stroke:#000000;stroke-width:0.69999999;stroke-linecap:round"
         id="path4628"
         inkscape:connector-curvature="0" />
      <path
         d="M -18.897638,1120.0318 0,1122.5197"
         style="fill:none;stroke:#000000;stroke-width:0.69999999;stroke-linecap:round"
         id="path4630"
         inkscape:connector-curvature="0" />
      <path
         d="m 0,1122.5197 -18.897638,-2.4879 1.889764,2.4879 -1.889764,2.4879 z"
         style="fill:#000000"
         id="path4632"
         inkscape:connector-curvature="0" />
      <path
         d="M 0,1122.5197 H -3.779528"
         style="fill:none;stroke:#000000;stroke-width:0.69999999;stroke-linecap:round"
         id="path4634"
         inkscape:connector-curvature="0" />
    </symbol>
    <symbol
       id="KDIMARROW_02">
      <path
         d="m 0,1122.5197 18.897638,2.4879"
         style="fill:none;stroke:#000000;stroke-width:0.69999999;stroke-linecap:round"
         id="path4637"
         inkscape:connector-curvature="0" />
      <path
         d="m 18.897638,1125.0076 -1.889764,-2.4879"
         style="fill:none;stroke:#000000;stroke-width:0.69999999;stroke-linecap:round"
         id="path4639"
         inkscape:connector-curvature="0" />
      <path
         d="m 17.007874,1122.5197 1.889764,-2.4879"
         style="fill:none;stroke:#000000;stroke-width:0.69999999;stroke-linecap:round"
         id="path4641"
         inkscape:connector-curvature="0" />
      <path
         d="M 18.897638,1120.0318 0,1122.5197"
         style="fill:none;stroke:#000000;stroke-width:0.69999999;stroke-linecap:round"
         id="path4643"
         inkscape:connector-curvature="0" />
      <path
         d="M 0,1122.5197 H 26.456693"
         style="fill:none;stroke:#000000;stroke-width:0.69999999;stroke-linecap:round"
         id="path4645"
         inkscape:connector-curvature="0" />
      <path
         d="m 17.007874,1122.5197 1.889764,-2.4879 L 0,1122.5197 l 18.897638,2.4879 z"
         style="fill:#000000"
         id="path4647"
         inkscape:connector-curvature="0" />
      <path
         d="M 0,1122.5197 H -3.779528"
         style="fill:none;stroke:#000000;stroke-width:0.69999999;stroke-linecap:round"
         id="path4649"
         inkscape:connector-curvature="0" />
    </symbol>
    <symbol
       id="KDIMARROW_03">
      <path
         d="m -4.008189,1126.5279 8.016378,-8.0164"
         style="fill:none;stroke:#000000;stroke-width:0.69999999;stroke-linecap:round"
         id="path4652"
         inkscape:connector-curvature="0" />
      <path
         d="M 0,1122.5197 H 7.559055"
         style="fill:none;stroke:#000000;stroke-width:0.69999999;stroke-linecap:round"
         id="path4654"
         inkscape:connector-curvature="0" />
      <path
         d="M 0,1122.5197 H -3.779528"
         style="fill:none;stroke:#000000;stroke-width:0.69999999;stroke-linecap:round"
         id="path4656"
         inkscape:connector-curvature="0" />
    </symbol>
    <symbol
       id="KDIMARROW_04">
      <path
         d="M -0.944882,1122.5197 0,1123.4646 0.944882,1122.5197 0,1121.5748 l -0.944882,0.9449 H -1.889764 L 0,1124.4094 1.889764,1122.5197 0,1120.6299 l -1.889764,1.8898 H -2.834646 L 0,1125.3543 2.834646,1122.5197 0,1119.685 l -2.834646,2.8347"
         style="fill:none;stroke:#000000;stroke-linecap:round"
         id="path4659"
         inkscape:connector-curvature="0" />
      <path
         d="M -0.944882,1122.5197 0,1123.4646 0.944882,1122.5197 0,1121.5748 l -0.944882,0.9449 H -1.889764 L 0,1124.4094 1.889764,1122.5197 0,1120.6299 l -1.889764,1.8898 H -2.834646 L 0,1125.3543 2.834646,1122.5197 0,1119.685 l -2.834646,2.8347"
         style="fill:none;stroke:#000000;stroke-linecap:round"
         id="path4661"
         inkscape:connector-curvature="0" />
      <path
         d="M 0,1122.5197 H -3.779528"
         style="fill:none;stroke:#000000;stroke-width:0.69999999;stroke-linecap:round"
         id="path4663"
         inkscape:connector-curvature="0" />
    </symbol>
    <symbol
       id="KDIMARROW_05">
      <path
         d="m 0,1122.5197 -18.897638,2.4879"
         style="fill:none;stroke:#000000;stroke-width:0.69999999;stroke-linecap:round"
         id="path4666"
         inkscape:connector-curvature="0" />
      <path
         d="m -18.897638,1125.0076 v -2.4879"
         style="fill:none;stroke:#000000;stroke-width:0.69999999;stroke-linecap:round"
         id="path4668"
         inkscape:connector-curvature="0" />
      <path
         d="m -18.897638,1122.5197 v -2.4879"
         style="fill:none;stroke:#000000;stroke-width:0.69999999;stroke-linecap:round"
         id="path4670"
         inkscape:connector-curvature="0" />
      <path
         d="M -18.897638,1120.0318 0,1122.5197"
         style="fill:none;stroke:#000000;stroke-width:0.69999999;stroke-linecap:round"
         id="path4672"
         inkscape:connector-curvature="0" />
      <path
         d="m 0,1122.5197 -18.897638,-2.4879 v 2.4879 2.4879 z"
         style="fill:#000000"
         id="path4674"
         inkscape:connector-curvature="0" />
      <path
         d="M 0,1122.5197 H -3.779528"
         style="fill:none;stroke:#000000;stroke-width:0.69999999;stroke-linecap:round"
         id="path4676"
         inkscape:connector-curvature="0" />
    </symbol>
    <symbol
       id="KDIMARROW_06">
      <path
         d="m 0,1122.5197 18.897638,2.4879"
         style="fill:none;stroke:#000000;stroke-width:0.69999999;stroke-linecap:round"
         id="path4679"
         inkscape:connector-curvature="0" />
      <path
         d="m 18.897638,1125.0076 v -2.4879"
         style="fill:none;stroke:#000000;stroke-width:0.69999999;stroke-linecap:round"
         id="path4681"
         inkscape:connector-curvature="0" />
      <path
         d="m 18.897638,1122.5197 v -2.4879"
         style="fill:none;stroke:#000000;stroke-width:0.69999999;stroke-linecap:round"
         id="path4683"
         inkscape:connector-curvature="0" />
      <path
         d="M 18.897638,1120.0318 0,1122.5197"
         style="fill:none;stroke:#000000;stroke-width:0.69999999;stroke-linecap:round"
         id="path4685"
         inkscape:connector-curvature="0" />
      <path
         d="M 0,1122.5197 H 26.456693"
         style="fill:none;stroke:#000000;stroke-width:0.69999999;stroke-linecap:round"
         id="path4687"
         inkscape:connector-curvature="0" />
      <path
         d="m 18.897638,1122.5197 v -2.4879 L 0,1122.5197 l 18.897638,2.4879 z"
         style="fill:#000000"
         id="path4689"
         inkscape:connector-curvature="0" />
      <path
         d="M 0,1122.5197 H -3.779528"
         style="fill:none;stroke:#000000;stroke-width:0.69999999;stroke-linecap:round"
         id="path4691"
         inkscape:connector-curvature="0" />
    </symbol>
    <symbol
       id="KDIMARROW_07">
      <path
         d="m 0,1122.5197 -18.897638,2.4879"
         style="fill:none;stroke:#000000;stroke-width:0.69999999;stroke-linecap:round"
         id="path4694"
         inkscape:connector-curvature="0" />
      <path
         d="m 0,1122.5197 -18.897638,-2.4879"
         style="fill:none;stroke:#000000;stroke-width:0.69999999;stroke-linecap:round"
         id="path4696"
         inkscape:connector-curvature="0" />
      <path
         d="M 0,1122.5197 H -3.779528"
         style="fill:none;stroke:#000000;stroke-width:0.69999999;stroke-linecap:round"
         id="path4698"
         inkscape:connector-curvature="0" />
    </symbol>
    <symbol
       id="KDIMARROW_08">
      <path
         d="m 0,1122.5197 18.897638,2.4879"
         style="fill:none;stroke:#000000;stroke-width:0.69999999;stroke-linecap:round"
         id="path4701"
         inkscape:connector-curvature="0" />
      <path
         d="m 0,1122.5197 18.897638,-2.4879"
         style="fill:none;stroke:#000000;stroke-width:0.69999999;stroke-linecap:round"
         id="path4703"
         inkscape:connector-curvature="0" />
      <path
         d="M 0,1122.5197 H 26.456693"
         style="fill:none;stroke:#000000;stroke-width:0.69999999;stroke-linecap:round"
         id="path4705"
         inkscape:connector-curvature="0" />
      <path
         d="M 0,1122.5197 H -3.779528"
         style="fill:none;stroke:#000000;stroke-width:0.69999999;stroke-linecap:round"
         id="path4707"
         inkscape:connector-curvature="0" />
    </symbol>
    <symbol
       id="KDIMARROW_09">
      <path
         d="m 0,1122.5197 -7.559055,7.559"
         style="fill:none;stroke:#000000;stroke-width:0.69999999;stroke-linecap:round"
         id="path4710"
         inkscape:connector-curvature="0" />
      <path
         d="m 0,1122.5197 -7.559055,-7.5591"
         style="fill:none;stroke:#000000;stroke-width:0.69999999;stroke-linecap:round"
         id="path4712"
         inkscape:connector-curvature="0" />
      <path
         d="M 0,1122.5197 H -3.779528"
         style="fill:none;stroke:#000000;stroke-width:0.69999999;stroke-linecap:round"
         id="path4714"
         inkscape:connector-curvature="0" />
    </symbol>
    <symbol
       id="KDIMARROW_10">
      <path
         d="m 0,1122.5197 7.559055,7.559"
         style="fill:none;stroke:#000000;stroke-width:0.69999999;stroke-linecap:round"
         id="path4717"
         inkscape:connector-curvature="0" />
      <path
         d="m 0,1122.5197 7.559055,-7.5591"
         style="fill:none;stroke:#000000;stroke-width:0.69999999;stroke-linecap:round"
         id="path4719"
         inkscape:connector-curvature="0" />
      <path
         d="M 0,1122.5197 H 15.11811"
         style="fill:none;stroke:#000000;stroke-width:0.69999999;stroke-linecap:round"
         id="path4721"
         inkscape:connector-curvature="0" />
      <path
         d="M 0,1122.5197 H -3.779528"
         style="fill:none;stroke:#000000;stroke-width:0.69999999;stroke-linecap:round"
         id="path4723"
         inkscape:connector-curvature="0" />
    </symbol>
    <symbol
       id="KDIMARROW_11">
      <path
         d="m 9.448819,1122.5197 a 9.448819,9.448819 0 1 0 -18.897638,0 9.448819,9.448819 0 1 0 18.897638,0 z"
         style="fill:none;stroke:#000000;stroke-width:0.69999999;stroke-linecap:round"
         id="path4726"
         inkscape:connector-curvature="0" />
      <path
         d="m 9.448819,1122.5197 a 9.448819,9.448819 0 1 0 -18.897638,0 9.448819,9.448819 0 1 0 18.897638,0 z"
         style="fill:none;stroke:#000000;stroke-width:0.69999999;stroke-linecap:round"
         id="path4728"
         inkscape:connector-curvature="0" />
      <path
         d="M 0,1122.5197 H -3.779528"
         style="fill:none;stroke:#000000;stroke-width:0.69999999;stroke-linecap:round"
         id="path4730"
         inkscape:connector-curvature="0" />
    </symbol>
    <symbol
       id="KDIMARROW_12">
      <path
         d="m 5.669291,1122.5197 a 5.669291,5.669291 0 1 0 -11.338582,0 5.669291,5.669291 0 1 0 11.338582,0 z"
         style="fill:none;stroke:#000000;stroke-width:0.69999999;stroke-linecap:round"
         id="path4733"
         inkscape:connector-curvature="0" />
      <path
         d="m 5.669291,1122.5197 a 5.669291,5.669291 0 1 0 -11.338582,0 5.669291,5.669291 0 1 0 11.338582,0 z"
         style="fill:none;stroke:#000000;stroke-width:0.69999999;stroke-linecap:round"
         id="path4735"
         inkscape:connector-curvature="0" />
      <path
         d="M 0,1122.5197 H -3.779528"
         style="fill:none;stroke:#000000;stroke-width:0.69999999;stroke-linecap:round"
         id="path4737"
         inkscape:connector-curvature="0" />
    </symbol>
    <symbol
       id="KDIMARROW_13">
      <path
         d="m -4.008189,1118.5115 8.016378,8.0164"
         style="fill:none;stroke:#000000;stroke-width:0.69999999;stroke-linecap:round"
         id="path4740"
         inkscape:connector-curvature="0" />
      <path
         d="M 0,1122.5197 H 7.559055"
         style="fill:none;stroke:#000000;stroke-width:0.69999999;stroke-linecap:round"
         id="path4742"
         inkscape:connector-curvature="0" />
      <path
         d="M 0,1122.5197 H -3.779528"
         style="fill:none;stroke:#000000;stroke-width:0.69999999;stroke-linecap:round"
         id="path4744"
         inkscape:connector-curvature="0" />
    </symbol>
  </defs>
  <g
     inkscape:groupmode="layer"
     inkscape:label="0"
     id="g4805"
     transform="translate(0,-994.51965)">
    <g
       id="g4843"
       transform="matrix(0.73279644,0,0,0.73279644,-84.284441,385.33316)">
      <path
         inkscape:connector-curvature="0"
         id="path4749"
         style="fill:#1b3c72;fill-opacity:1"
         d="m 188.34309,889.12595 3.11244,-1.08131 2.7781,1.7716 0.56152,1.98224 v 97.08204 l 2.87244,5.93085 4.68662,1.62821 h 19.53809 l 5.93085,-2.87244 0.19589,-0.25916 50.73942,-70.21347 1.14563,-6.48948 -1.92731,-3.28303 -70.27752,-70.27752 -6.22486,-2.16262 -4.46525,2.16262 -70.27752,70.27752 -2.16262,6.22486 1.38094,3.54765 53.00246,73.34507 -18.33876,-74.4251 1.37007,-6.44583 0.6244,-0.70772 z m 25.3497,16.31276 v -20.55082 l 1.43622,-2.96543 3.21713,-0.7117 1.79871,1.0046 20.55082,20.55082 1.08131,3.11243 -1.77161,2.77811 -1.98223,0.56152 h -20.55082 l -2.96543,-1.43622 z m 0,26.45669 1.43622,-2.96542 2.34331,-0.81411 h 26.94756 l 2.96542,1.43622 0.71171,3.21714 -0.61376,1.3399 -26.94756,37.29017 -2.90098,1.56231 -3.0244,-1.30748 -0.91752,-2.46855 z" />
      <path
         id="path4803"
         style="fill:none;stroke:#1b3c72;stroke-width:3.79999995;stroke-linecap:round;stroke-opacity:1"
         d="m 221.8923,996.43958 a 7.559055,7.559055 0 0 0 6.12674,-3.1316 m -14.32625,-24.1224 a 3.779528,3.779528 0 0 0 6.8429,2.21372 m 26.94756,-37.29017 a 3.779528,3.779528 0 0 0 -3.06337,-5.99326 m -6.39674,-18.89763 a 3.779528,3.779528 0 0 0 2.67253,-6.45206 m -20.55082,-20.55082 a 3.779528,3.779528 0 0 0 -6.45206,2.67253 m 0,20.55082 a 3.779528,3.779528 0 0 0 3.77953,3.77953 m 0,18.89763 a 3.779528,3.779528 0 0 0 -3.77953,3.77953 m 0,37.29018 V 931.8954 m 33.79046,2.21373 -26.94756,37.29017 m -3.06337,-43.28343 h 26.94756 m -30.72709,-22.67716 v -20.55082 m 24.33035,24.33035 h -20.55082 m 2.67253,-27.00288 20.55082,20.55082 m -38.34146,93.6734 h 19.53809 m -27.09715,-104.6411 a 3.779528,3.779528 0 0 0 -6.45206,-2.67253 m 6.45206,99.75457 a 7.559055,7.559055 0 0 0 7.55906,7.55906 m -39.74609,-81.57865 a 7.559055,7.559055 0 0 0 -1.99447,7.15355 m 118.14481,1.08003 a 7.559055,7.559055 0 0 0 -0.78168,-9.77251 m -70.27752,-70.27752 a 7.559055,7.559055 0 0 0 -10.69011,0 M 126.73163,913.322 a 7.559055,7.559055 0 0 0 -0.78168,9.77251 m 68.8452,-31.29603 v 97.08204 m -32.18703,-74.01959 25.73497,-25.73498 m -27.72944,32.88853 18.33876,74.4251 m 99.80605,-73.34507 -50.73942,70.21347 m -102.06909,-70.21347 53.00246,73.34507 M 277.97678,913.322 207.69926,843.04448 m -80.96763,70.27752 70.27752,-70.27752" />
    </g>
  </g>
  <g
     inkscape:groupmode="layer"
     inkscape:label="Системный слой"
     id="g4807"
     transform="translate(0,-994.51965)" />
</svg>
